<svg xmlns="http://www.w3.org/2000/svg" xmlns:xlink="http://www.w3.org/1999/xlink" width="500" zoomAndPan="magnify" viewBox="0 0 375 374.999991" height="500" preserveAspectRatio="xMidYMid meet" version="1.0"><defs><g/></defs><g fill="#f2f0fa" fill-opacity="1"><g transform="translate(55.362632, 182.438659)"><g><path d="M 33.46875 -11.828125 C 33.789062 -11.878906 34.117188 -11.898438 34.453125 -11.890625 C 34.796875 -11.878906 35.128906 -11.785156 35.453125 -11.609375 C 35.503906 -11.554688 35.550781 -11.460938 35.59375 -11.328125 C 35.644531 -11.191406 35.6875 -11.066406 35.71875 -10.953125 C 35.71875 -10.898438 35.6875 -10.835938 35.625 -10.765625 C 35.5625 -10.691406 35.503906 -10.617188 35.453125 -10.546875 C 35.304688 -10.472656 35.160156 -10.414062 35.015625 -10.375 C 33.109375 -10 31.335938 -9.363281 29.703125 -8.46875 C 28.078125 -7.570312 26.53125 -6.535156 25.0625 -5.359375 C 23.0625 -3.796875 21.21875 -2.082031 19.53125 -0.21875 C 17.84375 1.632812 16.25 3.578125 14.75 5.609375 C 11.90625 9.421875 9.265625 13.382812 6.828125 17.5 C 6.265625 18.445312 5.691406 19.375 5.109375 20.28125 C 5.023438 20.457031 4.925781 20.617188 4.8125 20.765625 C 4.539062 21.203125 4.242188 21.613281 3.921875 22 C 3.066406 22.90625 2.066406 23.125 0.921875 22.65625 C 0.453125 22.414062 0.179688 22.097656 0.109375 21.703125 C 0.0351562 21.316406 0.046875 20.898438 0.140625 20.453125 C 0.773438 14.660156 1.15625 8.878906 1.28125 3.109375 C 1.507812 -4.648438 1.660156 -12.40625 1.734375 -20.15625 C 1.804688 -27.914062 1.679688 -35.664062 1.359375 -43.40625 C 1.160156 -48.050781 0.898438 -52.707031 0.578125 -57.375 C 0.429688 -59.507812 0.285156 -61.648438 0.140625 -63.796875 C 0.140625 -63.972656 0.117188 -64.132812 0.078125 -64.28125 C 0.0546875 -64.71875 0.046875 -65.160156 0.046875 -65.609375 C 0.109375 -66.285156 0.488281 -66.664062 1.1875 -66.75 C 1.59375 -66.8125 1.957031 -66.769531 2.28125 -66.625 C 2.613281 -66.476562 2.804688 -66.257812 2.859375 -65.96875 C 3.128906 -64.875 3.320312 -63.769531 3.4375 -62.65625 C 3.4375 -62.34375 3.453125 -62.019531 3.484375 -61.6875 C 3.921875 -55.632812 4.300781 -49.585938 4.625 -43.546875 C 4.945312 -37.546875 5.097656 -31.539062 5.078125 -25.53125 C 5.066406 -19.53125 4.988281 -13.519531 4.84375 -7.5 C 4.75 -2.582031 4.613281 2.34375 4.4375 7.28125 C 4.414062 8.4375 4.359375 9.578125 4.265625 10.703125 C 4.210938 11.359375 4.171875 12.007812 4.140625 12.65625 C 4.117188 13.21875 4.085938 13.789062 4.046875 14.375 C 4.046875 14.644531 4.03125 14.910156 4 15.171875 C 4.09375 15.203125 4.164062 15.226562 4.21875 15.25 C 4.3125 15.25 4.398438 15.265625 4.484375 15.296875 C 4.628906 15.066406 4.773438 14.847656 4.921875 14.640625 C 5.304688 14.023438 5.707031 13.410156 6.125 12.796875 C 8.84375 8.441406 11.851562 4.316406 15.15625 0.421875 C 16.820312 -1.554688 18.601562 -3.390625 20.5 -5.078125 C 22.394531 -6.765625 24.46875 -8.253906 26.71875 -9.546875 C 27.789062 -10.140625 28.875 -10.640625 29.96875 -11.046875 C 31.070312 -11.453125 32.238281 -11.710938 33.46875 -11.828125 Z M 33.46875 -11.828125 "/></g></g></g><g fill="#f2f0fa" fill-opacity="1"><g transform="translate(87.768075, 182.438659)"><g><path d="M 22.609375 -10.109375 C 23.066406 -10.078125 23.140625 -9.84375 22.828125 -9.40625 C 22.523438 -8.96875 22.007812 -8.410156 21.28125 -7.734375 C 20.550781 -7.066406 19.757812 -6.363281 18.90625 -5.625 C 17.75 -4.65625 16.816406 -3.816406 16.109375 -3.109375 C 15.328125 -2.441406 14.691406 -1.507812 14.203125 -0.3125 C 13.710938 0.875 13.46875 1.96875 13.46875 2.96875 C 13.46875 3.5 13.46875 4.128906 13.46875 4.859375 C 13.5 6.359375 13.5 8.15625 13.46875 10.25 C 13.445312 12.351562 13.332031 14.523438 13.125 16.765625 C 12.914062 19.015625 12.539062 21.125 12 23.09375 C 11.457031 25.0625 10.6875 26.671875 9.6875 27.921875 C 8.6875 29.171875 7.410156 29.851562 5.859375 29.96875 C 2.890625 30.050781 0.847656 28.816406 -0.265625 26.265625 C -1.117188 24.117188 -1.40625 21.914062 -1.125 19.65625 C -0.84375 17.40625 -0.210938 15.203125 0.765625 13.046875 C 1.753906 10.898438 2.863281 8.925781 4.09375 7.125 C 5.332031 5.320312 6.492188 3.8125 7.578125 2.59375 C 8.660156 1.375 9.4375 0.554688 9.90625 0.140625 C 10.101562 -0.523438 10.21875 -1.296875 10.25 -2.171875 C 10.289062 -3.054688 10.296875 -3.914062 10.265625 -4.75 C 10.222656 -5.007812 10.203125 -5.242188 10.203125 -5.453125 C 9.617188 -4.535156 9.015625 -3.894531 8.390625 -3.53125 C 7.765625 -3.164062 7.132812 -2.96875 6.5 -2.9375 C 5.863281 -2.90625 5.265625 -2.921875 4.703125 -2.984375 C 4.648438 -2.984375 4.597656 -2.984375 4.546875 -2.984375 C 3.253906 -3.160156 2.234375 -3.765625 1.484375 -4.796875 C 0.734375 -5.835938 0.25 -7.023438 0.03125 -8.359375 C -0.1875 -9.703125 -0.128906 -10.898438 0.203125 -11.953125 C 0.535156 -13.015625 1.140625 -13.632812 2.015625 -13.8125 C 2.378906 -13.90625 2.78125 -13.953125 3.21875 -13.953125 C 3.664062 -13.953125 4.035156 -13.890625 4.328125 -13.765625 C 4.617188 -13.648438 4.71875 -13.429688 4.625 -13.109375 C 4.351562 -12.015625 4.195312 -10.828125 4.15625 -9.546875 C 4.125 -8.273438 4.238281 -7.171875 4.5 -6.234375 C 4.757812 -5.296875 5.222656 -4.789062 5.890625 -4.71875 C 6.566406 -4.644531 7.46875 -5.253906 8.59375 -6.546875 C 9.125 -7.222656 9.488281 -7.914062 9.6875 -8.625 C 9.882812 -9.34375 10.046875 -10.117188 10.171875 -10.953125 C 10.191406 -11.242188 10.238281 -11.535156 10.3125 -11.828125 C 10.332031 -12.117188 10.375 -12.414062 10.4375 -12.71875 C 10.46875 -13.101562 10.515625 -13.484375 10.578125 -13.859375 C 10.722656 -14.472656 11.0625 -14.898438 11.59375 -15.140625 C 12.132812 -15.378906 12.722656 -15.351562 13.359375 -15.0625 C 13.671875 -14.875 13.851562 -14.601562 13.90625 -14.25 C 13.976562 -13.570312 14.015625 -12.898438 14.015625 -12.234375 C 13.972656 -9.859375 13.953125 -6.9375 13.953125 -3.46875 C 13.992188 -3.488281 14.285156 -3.734375 14.828125 -4.203125 C 15.535156 -4.859375 16.429688 -5.640625 17.515625 -6.546875 C 18.609375 -7.453125 19.640625 -8.265625 20.609375 -8.984375 C 21.578125 -9.703125 22.242188 -10.078125 22.609375 -10.109375 Z M 9.546875 10.234375 C 9.546875 9.910156 9.566406 9.578125 9.609375 9.234375 C 9.640625 7.960938 9.679688 6.679688 9.734375 5.390625 C 9.734375 5.335938 9.710938 5.265625 9.671875 5.171875 C 9.628906 5.085938 9.578125 5.023438 9.515625 4.984375 C 9.367188 4.878906 9.242188 4.863281 9.140625 4.9375 C 9.035156 5.007812 8.9375 5.085938 8.84375 5.171875 C 7.613281 6.753906 6.457031 8.550781 5.375 10.5625 C 4.289062 12.570312 3.441406 14.660156 2.828125 16.828125 C 2.210938 19.003906 1.957031 21.132812 2.0625 23.21875 C 2.15625 24.519531 2.566406 25.707031 3.296875 26.78125 C 4.179688 28 4.953125 28.4375 5.609375 28.09375 C 6.273438 27.757812 6.832031 26.921875 7.28125 25.578125 C 7.738281 24.242188 8.113281 22.671875 8.40625 20.859375 C 8.695312 19.054688 8.921875 17.289062 9.078125 15.5625 C 9.242188 13.832031 9.375 12.394531 9.46875 11.25 C 9.5 10.863281 9.523438 10.523438 9.546875 10.234375 Z M 9.546875 10.234375 "/></g></g></g><g fill="#f2f0fa" fill-opacity="1"><g transform="translate(108.944702, 182.438659)"><g><path d="M 31.40625 -9.765625 C 31.53125 -9.992188 31.710938 -10.113281 31.953125 -10.125 C 32.203125 -10.144531 32.414062 -9.992188 32.59375 -9.671875 C 32.65625 -9.585938 32.585938 -9.363281 32.390625 -9 C 32.203125 -8.632812 31.945312 -8.21875 31.625 -7.75 C 31.3125 -7.289062 31.003906 -6.867188 30.703125 -6.484375 C 30.410156 -6.109375 30.207031 -5.863281 30.09375 -5.75 C 28.769531 -4.28125 27.441406 -3.203125 26.109375 -2.515625 C 24.773438 -1.828125 23.328125 -1.675781 21.765625 -2.0625 C 20.203125 -2.457031 18.453125 -3.570312 16.515625 -5.40625 C 16.222656 -5.726562 15.929688 -6.046875 15.640625 -6.359375 C 15.554688 -6.453125 15.484375 -6.539062 15.421875 -6.625 C 15.097656 -6.988281 14.742188 -7.035156 14.359375 -6.765625 C 13.953125 -6.472656 13.546875 -6.179688 13.140625 -5.890625 C 12.773438 -5.617188 12.40625 -5.367188 12.03125 -5.140625 C 10.789062 -4.285156 9.484375 -3.566406 8.109375 -2.984375 C 6.640625 -2.328125 5.097656 -2.070312 3.484375 -2.21875 C 0.960938 -2.507812 -0.34375 -3.90625 -0.4375 -6.40625 C -0.46875 -8.164062 -0.09375 -9.742188 0.6875 -11.140625 C 1.46875 -12.535156 2.554688 -13.5625 3.953125 -14.21875 C 5.347656 -14.882812 6.953125 -15.015625 8.765625 -14.609375 C 8.960938 -14.566406 9.226562 -14.507812 9.5625 -14.4375 C 9.769531 -14.363281 10.019531 -14.300781 10.3125 -14.25 C 10.132812 -14.664062 9.972656 -15.035156 9.828125 -15.359375 C 9.554688 -15.890625 9.320312 -16.375 9.125 -16.8125 C 7.914062 -19.3125 6.929688 -22.164062 6.171875 -25.375 C 5.410156 -28.582031 5.035156 -31.875 5.046875 -35.25 C 5.054688 -38.625 5.617188 -41.765625 6.734375 -44.671875 C 7.847656 -47.585938 9.703125 -49.988281 12.296875 -51.875 C 13.929688 -52.976562 15.625 -53.578125 17.375 -53.671875 C 19.125 -53.765625 20.773438 -53.382812 22.328125 -52.53125 C 23.890625 -51.675781 25.15625 -50.394531 26.125 -48.6875 C 27.375 -46.34375 28.148438 -43.867188 28.453125 -41.265625 C 28.984375 -37.054688 28.894531 -33.128906 28.1875 -29.484375 C 27.476562 -25.847656 26.226562 -22.40625 24.4375 -19.15625 C 22.65625 -15.914062 20.382812 -12.765625 17.625 -9.703125 C 17.351562 -9.410156 17.207031 -9.175781 17.1875 -9 C 17.175781 -8.832031 17.304688 -8.585938 17.578125 -8.265625 C 18.140625 -7.535156 18.75 -6.820312 19.40625 -6.125 C 20.070312 -5.425781 20.8125 -4.847656 21.625 -4.390625 C 22.769531 -3.890625 23.992188 -3.878906 25.296875 -4.359375 C 26.609375 -4.835938 27.820312 -5.582031 28.9375 -6.59375 C 30.050781 -7.613281 30.875 -8.671875 31.40625 -9.765625 Z M 11.765625 -8.015625 C 12.117188 -8.304688 12.148438 -8.640625 11.859375 -9.015625 C 11.679688 -9.222656 11.503906 -9.441406 11.328125 -9.671875 C 10.847656 -10.253906 10.300781 -10.851562 9.6875 -11.46875 C 9.070312 -12.09375 8.429688 -12.566406 7.765625 -12.890625 C 7.109375 -13.210938 6.441406 -13.238281 5.765625 -12.96875 C 4.828125 -12.53125 4.054688 -11.753906 3.453125 -10.640625 C 2.859375 -9.523438 2.507812 -8.378906 2.40625 -7.203125 C 2.300781 -6.035156 2.523438 -5.144531 3.078125 -4.53125 C 3.640625 -3.914062 4.597656 -3.851562 5.953125 -4.34375 C 8.066406 -5.28125 10.003906 -6.503906 11.765625 -8.015625 Z M 16.21875 -12.359375 C 19.03125 -15.679688 21.132812 -18.945312 22.53125 -22.15625 C 23.925781 -25.375 24.867188 -29.140625 25.359375 -33.453125 C 25.503906 -34.503906 25.570312 -35.882812 25.5625 -37.59375 C 25.550781 -39.300781 25.398438 -41.085938 25.109375 -42.953125 C 24.816406 -44.816406 24.285156 -46.507812 23.515625 -48.03125 C 22.753906 -49.5625 21.691406 -50.660156 20.328125 -51.328125 C 18.960938 -52.003906 17.210938 -52.003906 15.078125 -51.328125 C 12.722656 -49.953125 10.976562 -48.125 9.84375 -45.84375 C 8.707031 -43.570312 8.0625 -41.039062 7.90625 -38.25 C 7.75 -35.46875 7.929688 -32.617188 8.453125 -29.703125 C 8.984375 -26.796875 9.71875 -24.035156 10.65625 -21.421875 C 11.601562 -18.816406 12.613281 -16.546875 13.6875 -14.609375 C 13.8125 -14.367188 13.929688 -14.128906 14.046875 -13.890625 C 14.367188 -13.109375 14.835938 -12.394531 15.453125 -11.75 C 15.546875 -11.832031 15.640625 -11.90625 15.734375 -11.96875 C 15.910156 -12.070312 16.070312 -12.203125 16.21875 -12.359375 Z M 16.21875 -12.359375 "/></g></g></g><g fill="#f2f0fa" fill-opacity="1"><g transform="translate(140.169217, 182.438659)"><g><path d="M 10.390625 -8.125 C 9.972656 -7.269531 9.265625 -6.320312 8.265625 -5.28125 C 7.273438 -4.238281 6.148438 -3.578125 4.890625 -3.296875 C 3.628906 -3.023438 2.425781 -3.460938 1.28125 -4.609375 C 0.84375 -5.109375 0.519531 -5.6875 0.3125 -6.34375 C 0.101562 -7.007812 0.0234375 -7.664062 0.078125 -8.3125 C 0.078125 -8.476562 0.078125 -8.695312 0.078125 -8.96875 C 0.078125 -9.644531 0.109375 -10.429688 0.171875 -11.328125 C 0.234375 -12.222656 0.363281 -13.03125 0.5625 -13.75 C 0.769531 -14.46875 1.097656 -14.90625 1.546875 -15.0625 C 2.804688 -15.375 3.492188 -14.929688 3.609375 -13.734375 C 3.609375 -13.347656 3.59375 -12.960938 3.5625 -12.578125 C 3.539062 -12.367188 3.53125 -12.179688 3.53125 -12.015625 C 3.5 -11.453125 3.46875 -10.890625 3.4375 -10.328125 C 3.4375 -9.890625 3.421875 -9.453125 3.390625 -9.015625 C 3.359375 -7.078125 3.789062 -5.921875 4.6875 -5.546875 C 5.582031 -5.179688 6.601562 -5.570312 7.75 -6.71875 C 8.894531 -7.875 9.644531 -8.832031 10 -9.59375 C 10.351562 -10.351562 10.609375 -10.507812 10.765625 -10.0625 C 10.929688 -9.625 10.804688 -8.976562 10.390625 -8.125 Z M 3.34375 -19.171875 C 3.164062 -19.023438 2.953125 -18.929688 2.703125 -18.890625 C 2.460938 -18.859375 2.25 -18.878906 2.0625 -18.953125 C 1.914062 -19.078125 1.820312 -19.234375 1.78125 -19.421875 C 1.738281 -19.617188 1.71875 -19.851562 1.71875 -20.125 C 1.71875 -20.175781 1.734375 -20.226562 1.765625 -20.28125 C 1.785156 -20.519531 1.84375 -20.757812 1.9375 -21 C 2.207031 -21.644531 2.765625 -21.9375 3.609375 -21.875 C 3.898438 -21.84375 4.128906 -21.722656 4.296875 -21.515625 C 4.460938 -21.316406 4.5 -21.085938 4.40625 -20.828125 C 4.207031 -20.171875 3.851562 -19.617188 3.34375 -19.171875 Z M 3.34375 -19.171875 "/></g></g></g><g fill="#f2f0fa" fill-opacity="1"><g transform="translate(149.996933, 182.438659)"><g><path d="M 22.65625 -10.28125 C 22.289062 -9.164062 21.5625 -7.882812 20.46875 -6.4375 C 19.382812 -4.988281 18.023438 -4.054688 16.390625 -3.640625 C 14.765625 -3.222656 13.359375 -3.28125 12.171875 -3.8125 C 10.984375 -4.34375 10.328125 -5.753906 10.203125 -8.046875 C 8.859375 -5.429688 7.578125 -3.753906 6.359375 -3.015625 C 5.140625 -2.285156 3.867188 -2.007812 2.546875 -2.1875 C 1.046875 -2.425781 0.0351562 -3.003906 -0.484375 -3.921875 C -1.015625 -4.847656 -1.191406 -5.910156 -1.015625 -7.109375 C -0.847656 -8.316406 -0.484375 -9.476562 0.078125 -10.59375 C 0.515625 -11.414062 1.125 -12.179688 1.90625 -12.890625 C 2.6875 -13.597656 3.503906 -14.148438 4.359375 -14.546875 C 5.421875 -15.085938 6.484375 -15.34375 7.546875 -15.3125 C 8.617188 -15.289062 9.757812 -14.9375 10.96875 -14.25 C 11 -14.226562 11.015625 -14.253906 11.015625 -14.328125 C 11.015625 -14.453125 11.039062 -14.601562 11.09375 -14.78125 C 11.15625 -14.96875 11.257812 -15.113281 11.40625 -15.21875 C 11.8125 -15.507812 12.285156 -15.65625 12.828125 -15.65625 C 13.378906 -15.65625 13.800781 -15.378906 14.09375 -14.828125 C 14.144531 -14.128906 14.070312 -13.226562 13.875 -12.125 C 13.4375 -9.726562 13.4375 -8 13.875 -6.9375 C 14.3125 -5.882812 15.085938 -5.394531 16.203125 -5.46875 C 17.316406 -5.539062 18.757812 -6.640625 20.53125 -8.765625 C 22.3125 -10.898438 23.019531 -11.40625 22.65625 -10.28125 Z M 2.9375 -4.640625 C 3.550781 -4.203125 4.253906 -4.265625 5.046875 -4.828125 C 5.847656 -5.390625 6.613281 -6.179688 7.34375 -7.203125 C 8.082031 -8.234375 8.703125 -9.257812 9.203125 -10.28125 C 9.703125 -11.3125 9.976562 -12.078125 10.03125 -12.578125 C 8.53125 -13.378906 7.242188 -13.515625 6.171875 -12.984375 C 5.109375 -12.453125 4.257812 -11.585938 3.625 -10.390625 C 3 -9.203125 2.625 -8.039062 2.5 -6.90625 C 2.382812 -5.78125 2.53125 -5.023438 2.9375 -4.640625 Z M 2.9375 -4.640625 "/></g></g></g><g fill="#f2f0fa" fill-opacity="1"><g transform="translate(171.213591, 182.438659)"><g/></g></g><g fill="#f2f0fa" fill-opacity="1"><g transform="translate(181.381575, 182.438659)"><g><path d="M 61.296875 -11.96875 C 61.585938 -12 61.71875 -11.773438 61.6875 -11.296875 C 61.664062 -10.828125 61.484375 -10.578125 61.140625 -10.546875 C 60.804688 -10.492188 60.5 -10.332031 60.21875 -10.0625 C 59.945312 -9.800781 59.8125 -9.507812 59.8125 -9.1875 C 59.894531 -6.34375 59.53125 -3.601562 58.71875 -0.96875 C 57.914062 1.65625 56.84375 4.1875 55.5 6.625 C 52.820312 11.695312 49.578125 16.207031 45.765625 20.15625 C 41.953125 24.101562 37.488281 27.4375 32.375 30.15625 C 29.550781 31.625 26.648438 32.722656 23.671875 33.453125 C 20.691406 34.179688 17.597656 34.457031 14.390625 34.28125 C 11.722656 34.125 9.210938 33.40625 6.859375 32.125 C 4.078125 30.476562 2.238281 28.328125 1.34375 25.671875 C 0.445312 23.015625 0.613281 20.191406 1.84375 17.203125 C 3.132812 14.285156 5.164062 11.570312 7.9375 9.0625 C 10.71875 6.5625 13.945312 4.257812 17.625 2.15625 C 21.3125 0.0507812 25.15625 -1.804688 29.15625 -3.421875 C 33.15625 -5.035156 37.007812 -6.410156 40.71875 -7.546875 C 44.425781 -8.691406 47.722656 -9.5625 50.609375 -10.15625 C 51.398438 -10.34375 52.175781 -10.507812 52.9375 -10.65625 C 53.757812 -10.800781 54.566406 -10.957031 55.359375 -11.125 C 56.035156 -11.25 56.273438 -11.617188 56.078125 -12.234375 C 55.390625 -15.046875 54.035156 -17.46875 52.015625 -19.5 C 50.546875 -20.9375 48.953125 -22.148438 47.234375 -23.140625 C 45.515625 -24.140625 43.703125 -24.984375 41.796875 -25.671875 C 36.078125 -27.691406 30.160156 -28.832031 24.046875 -29.09375 C 23.628906 -29.132812 23.203125 -29.15625 22.765625 -29.15625 C 22.265625 -29.113281 22.003906 -28.84375 21.984375 -28.34375 C 21.910156 -27.757812 21.875 -27.175781 21.875 -26.59375 C 21.851562 -21.976562 21.84375 -17.363281 21.84375 -12.75 C 21.8125 -10.71875 21.796875 -8.675781 21.796875 -6.625 C 21.796875 -6.476562 21.796875 -6.351562 21.796875 -6.25 C 21.796875 -5.957031 21.796875 -5.660156 21.796875 -5.359375 C 21.648438 -4.046875 20.960938 -3.585938 19.734375 -3.984375 C 19.253906 -4.128906 19.003906 -4.441406 18.984375 -4.921875 C 18.929688 -5.585938 18.914062 -6.265625 18.9375 -6.953125 C 18.914062 -11.109375 18.90625 -15.257812 18.90625 -19.40625 C 18.90625 -21.5 18.90625 -23.570312 18.90625 -25.625 C 18.90625 -25.800781 18.90625 -25.972656 18.90625 -26.140625 C 18.90625 -26.640625 18.890625 -27.15625 18.859375 -27.6875 C 18.859375 -28.25 18.773438 -28.613281 18.609375 -28.78125 C 18.441406 -28.957031 18.097656 -29.0625 17.578125 -29.09375 C 17.335938 -29.09375 17.117188 -29.09375 16.921875 -29.09375 C 16.359375 -29.132812 15.8125 -29.179688 15.28125 -29.234375 C 14.8125 -29.285156 14.488281 -29.53125 14.3125 -29.96875 C 14.164062 -30.53125 14.3125 -30.988281 14.75 -31.34375 C 15.34375 -31.8125 15.957031 -32.269531 16.59375 -32.71875 C 16.863281 -32.882812 17.101562 -33.03125 17.3125 -33.15625 C 17.8125 -33.476562 18.171875 -33.738281 18.390625 -33.9375 C 18.609375 -34.144531 18.738281 -34.378906 18.78125 -34.640625 C 18.832031 -34.898438 18.859375 -35.3125 18.859375 -35.875 C 18.816406 -36.195312 18.796875 -36.578125 18.796875 -37.015625 C 18.835938 -40.335938 18.859375 -43.675781 18.859375 -47.03125 C 18.859375 -48.863281 18.859375 -50.722656 18.859375 -52.609375 C 18.859375 -52.640625 18.859375 -52.6875 18.859375 -52.75 C 18.859375 -53.394531 18.882812 -54.023438 18.9375 -54.640625 C 18.988281 -55.429688 19.457031 -55.816406 20.34375 -55.796875 C 21.195312 -55.816406 21.679688 -55.445312 21.796875 -54.6875 C 21.847656 -53.914062 21.875 -53.132812 21.875 -52.34375 C 21.875 -50.34375 21.875 -48.347656 21.875 -46.359375 C 21.875 -43.921875 21.894531 -41.5 21.9375 -39.09375 C 21.894531 -38.925781 21.875 -38.769531 21.875 -38.625 C 21.820312 -37.9375 21.929688 -37.15625 22.203125 -36.28125 C 24.140625 -37.394531 26.476562 -38.8125 29.21875 -40.53125 C 31.957031 -42.25 34.75 -44.09375 37.59375 -46.0625 C 40.445312 -48.03125 42.972656 -49.992188 45.171875 -51.953125 C 47.378906 -53.921875 48.910156 -55.742188 49.765625 -57.421875 C 50.671875 -59.328125 50.257812 -60.894531 48.53125 -62.125 C 46.394531 -63.5625 43.628906 -64.347656 40.234375 -64.484375 C 36.847656 -64.617188 33.269531 -64.257812 29.5 -63.40625 C 25.738281 -62.550781 22.242188 -61.363281 19.015625 -59.84375 C 15.785156 -58.320312 13.238281 -56.601562 11.375 -54.6875 C 10.78125 -54.0625 10.242188 -53.316406 9.765625 -52.453125 C 9.296875 -51.597656 8.929688 -50.742188 8.671875 -49.890625 C 8.472656 -49.359375 8.078125 -49.046875 7.484375 -48.953125 C 6.898438 -48.867188 6.398438 -49.035156 5.984375 -49.453125 C 5.785156 -49.742188 5.726562 -50.0625 5.8125 -50.40625 C 6.070312 -51.40625 6.53125 -52.320312 7.1875 -53.15625 C 9.269531 -55.820312 12.222656 -58.148438 16.046875 -60.140625 C 19.878906 -62.140625 24.035156 -63.648438 28.515625 -64.671875 C 32.992188 -65.703125 37.242188 -66.128906 41.265625 -65.953125 C 45.296875 -65.785156 48.546875 -64.875 51.015625 -63.21875 C 53.535156 -61.5 54.070312 -59.285156 52.625 -56.578125 C 51.894531 -55.222656 50.816406 -53.847656 49.390625 -52.453125 C 47.972656 -51.066406 46.460938 -49.75 44.859375 -48.5 C 43.265625 -47.25 41.84375 -46.171875 40.59375 -45.265625 C 38.34375 -43.617188 36.03125 -42.035156 33.65625 -40.515625 C 31.28125 -39.003906 28.882812 -37.53125 26.46875 -36.09375 C 26.414062 -36.070312 26.351562 -36.03125 26.28125 -35.96875 C 25.082031 -35.289062 23.910156 -34.585938 22.765625 -33.859375 C 21.953125 -33.242188 21.703125 -32.421875 22.015625 -31.390625 C 22.046875 -31.296875 22.113281 -31.195312 22.21875 -31.09375 C 22.320312 -31 22.429688 -30.953125 22.546875 -30.953125 C 23.023438 -30.859375 23.5 -30.8125 23.96875 -30.8125 C 23.988281 -30.8125 24.023438 -30.8125 24.078125 -30.8125 C 30.429688 -30.632812 36.617188 -29.546875 42.640625 -27.546875 C 45.972656 -26.492188 49.082031 -24.953125 51.96875 -22.921875 C 53.707031 -21.691406 55.179688 -20.28125 56.390625 -18.6875 C 57.609375 -17.101562 58.507812 -15.285156 59.09375 -13.234375 C 59.28125 -12.566406 59.5 -12.160156 59.75 -12.015625 C 60 -11.867188 60.515625 -11.851562 61.296875 -11.96875 Z M 56.5625 -6.953125 C 56.675781 -8.148438 56.585938 -8.878906 56.296875 -9.140625 C 56.003906 -9.410156 55.25 -9.398438 54.03125 -9.109375 C 51.164062 -8.523438 47.925781 -7.703125 44.3125 -6.640625 C 40.695312 -5.578125 36.984375 -4.28125 33.171875 -2.75 C 29.359375 -1.21875 25.6875 0.535156 22.15625 2.515625 C 18.632812 4.492188 15.53125 6.691406 12.84375 9.109375 C 10.15625 11.535156 8.132812 14.195312 6.78125 17.09375 C 5.8125 19.300781 5.367188 21.378906 5.453125 23.328125 C 5.535156 25.285156 6.035156 26.972656 6.953125 28.390625 C 7.867188 29.816406 9.078125 30.820312 10.578125 31.40625 C 12.484375 32.144531 14.460938 32.546875 16.515625 32.609375 C 16.660156 32.609375 16.796875 32.597656 16.921875 32.578125 C 17.210938 32.535156 17.503906 32.515625 17.796875 32.515625 C 21.671875 32.140625 25.328125 31.082031 28.765625 29.34375 C 35.035156 26.238281 40.328125 22.234375 44.640625 17.328125 C 48.960938 12.421875 52.382812 6.722656 54.90625 0.234375 C 55.789062 -2.085938 56.34375 -4.484375 56.5625 -6.953125 Z M 56.5625 -6.953125 "/></g></g></g><g fill="#f2f0fa" fill-opacity="1"><g transform="translate(245.391832, 182.438659)"><g><path d="M 14.453125 -9.328125 C 14.679688 -9.878906 14.925781 -10.15625 15.1875 -10.15625 C 15.457031 -10.15625 15.546875 -9.878906 15.453125 -9.328125 C 15.015625 -7.960938 14.488281 -6.65625 13.875 -5.40625 C 13.257812 -4.164062 12.425781 -3.050781 11.375 -2.0625 C 10.570312 -1.257812 9.617188 -0.742188 8.515625 -0.515625 C 7.003906 -0.304688 5.753906 -0.488281 4.765625 -1.0625 C 3.785156 -1.632812 3.007812 -2.457031 2.4375 -3.53125 C 1.863281 -4.601562 1.4375 -5.773438 1.15625 -7.046875 C 0.875 -8.328125 0.695312 -9.566406 0.625 -10.765625 C 0.40625 -13.035156 0.242188 -16.019531 0.140625 -19.71875 C 0.046875 -23.414062 0.0820312 -27.328125 0.25 -31.453125 C 0.425781 -35.578125 0.832031 -39.398438 1.46875 -42.921875 C 2.101562 -46.441406 3.035156 -49.171875 4.265625 -51.109375 C 4.972656 -52.054688 5.796875 -52.535156 6.734375 -52.546875 C 7.671875 -52.566406 8.507812 -52.132812 9.25 -51.25 C 9.738281 -50.570312 10.109375 -49.851562 10.359375 -49.09375 C 10.617188 -48.332031 10.789062 -47.554688 10.875 -46.765625 C 11.132812 -44.054688 11.097656 -41.195312 10.765625 -38.1875 C 10.429688 -35.175781 9.90625 -31.960938 9.1875 -28.546875 C 8.46875 -25.128906 7.609375 -22.117188 6.609375 -19.515625 C 5.609375 -16.910156 4.773438 -14.847656 4.109375 -13.328125 C 3.742188 -12.710938 3.609375 -11.785156 3.703125 -10.546875 C 3.828125 -9.203125 4.082031 -7.796875 4.46875 -6.328125 C 4.863281 -4.859375 5.414062 -3.695312 6.125 -2.84375 C 6.789062 -2.132812 7.535156 -1.910156 8.359375 -2.171875 C 9.191406 -2.441406 10.019531 -3.003906 10.84375 -3.859375 C 11.664062 -4.710938 12.390625 -5.644531 13.015625 -6.65625 C 13.640625 -7.664062 14.117188 -8.554688 14.453125 -9.328125 Z M 3.78125 -29.8125 C 3.695312 -28.925781 3.617188 -27.59375 3.546875 -25.8125 C 3.472656 -24.03125 3.40625 -22.21875 3.34375 -20.375 C 3.289062 -18.320312 3.226562 -16.722656 3.15625 -15.578125 C 3.8125 -17.046875 4.570312 -19.179688 5.4375 -21.984375 C 6.3125 -24.785156 7.101562 -28.085938 7.8125 -31.890625 C 8.53125 -35.691406 8.992188 -39.8125 9.203125 -44.25 C 9.085938 -46.832031 8.78125 -48.582031 8.28125 -49.5 C 7.78125 -50.425781 7.234375 -50.507812 6.640625 -49.75 C 6.054688 -48.988281 5.59375 -47.382812 5.25 -44.9375 C 4.707031 -40.894531 4.289062 -36.847656 4 -32.796875 C 3.925781 -31.796875 3.851562 -30.800781 3.78125 -29.8125 Z M 3.78125 -29.8125 "/></g></g></g><g fill="#f2f0fa" fill-opacity="1"><g transform="translate(259.622994, 182.438659)"><g><path d="M 22.65625 -10.28125 C 22.289062 -9.164062 21.5625 -7.882812 20.46875 -6.4375 C 19.382812 -4.988281 18.023438 -4.054688 16.390625 -3.640625 C 14.765625 -3.222656 13.359375 -3.28125 12.171875 -3.8125 C 10.984375 -4.34375 10.328125 -5.753906 10.203125 -8.046875 C 8.859375 -5.429688 7.578125 -3.753906 6.359375 -3.015625 C 5.140625 -2.285156 3.867188 -2.007812 2.546875 -2.1875 C 1.046875 -2.425781 0.0351562 -3.003906 -0.484375 -3.921875 C -1.015625 -4.847656 -1.191406 -5.910156 -1.015625 -7.109375 C -0.847656 -8.316406 -0.484375 -9.476562 0.078125 -10.59375 C 0.515625 -11.414062 1.125 -12.179688 1.90625 -12.890625 C 2.6875 -13.597656 3.503906 -14.148438 4.359375 -14.546875 C 5.421875 -15.085938 6.484375 -15.34375 7.546875 -15.3125 C 8.617188 -15.289062 9.757812 -14.9375 10.96875 -14.25 C 11 -14.226562 11.015625 -14.253906 11.015625 -14.328125 C 11.015625 -14.453125 11.039062 -14.601562 11.09375 -14.78125 C 11.15625 -14.96875 11.257812 -15.113281 11.40625 -15.21875 C 11.8125 -15.507812 12.285156 -15.65625 12.828125 -15.65625 C 13.378906 -15.65625 13.800781 -15.378906 14.09375 -14.828125 C 14.144531 -14.128906 14.070312 -13.226562 13.875 -12.125 C 13.4375 -9.726562 13.4375 -8 13.875 -6.9375 C 14.3125 -5.882812 15.085938 -5.394531 16.203125 -5.46875 C 17.316406 -5.539062 18.757812 -6.640625 20.53125 -8.765625 C 22.3125 -10.898438 23.019531 -11.40625 22.65625 -10.28125 Z M 2.9375 -4.640625 C 3.550781 -4.203125 4.253906 -4.265625 5.046875 -4.828125 C 5.847656 -5.390625 6.613281 -6.179688 7.34375 -7.203125 C 8.082031 -8.234375 8.703125 -9.257812 9.203125 -10.28125 C 9.703125 -11.3125 9.976562 -12.078125 10.03125 -12.578125 C 8.53125 -13.378906 7.242188 -13.515625 6.171875 -12.984375 C 5.109375 -12.453125 4.257812 -11.585938 3.625 -10.390625 C 3 -9.203125 2.625 -8.039062 2.5 -6.90625 C 2.382812 -5.78125 2.53125 -5.023438 2.9375 -4.640625 Z M 2.9375 -4.640625 "/></g></g></g><g fill="#f2f0fa" fill-opacity="1"><g transform="translate(280.839652, 182.438659)"><g><path d="M 19.734375 -9.625 C 20.140625 -9.976562 20.414062 -10.144531 20.5625 -10.125 C 20.707031 -10.113281 20.757812 -10.003906 20.71875 -9.796875 C 20.675781 -9.585938 20.570312 -9.359375 20.40625 -9.109375 C 19.957031 -8.453125 19.394531 -7.78125 18.71875 -7.09375 C 18.039062 -6.40625 17.550781 -5.929688 17.25 -5.671875 C 15.269531 -3.878906 13.484375 -2.910156 11.890625 -2.765625 C 10.304688 -2.617188 8.925781 -2.945312 7.75 -3.75 C 6.570312 -4.5625 5.625 -5.488281 4.90625 -6.53125 C 4.1875 -7.570312 3.710938 -8.382812 3.484375 -8.96875 C 3.390625 -8.789062 3.328125 -8.410156 3.296875 -7.828125 C 3.273438 -7.242188 3.265625 -6.550781 3.265625 -5.75 C 3.234375 -4.957031 3.203125 -4.179688 3.171875 -3.421875 C 3.140625 -2.660156 3.0625 -2.039062 2.9375 -1.5625 C 2.769531 -0.625 2.203125 -0.21875 1.234375 -0.34375 C 0.554688 -0.414062 0.171875 -0.769531 0.078125 -1.40625 C 0.0234375 -1.800781 0 -2.207031 0 -2.625 C 0 -3.5 0 -4.363281 0 -5.21875 C 0.03125 -8.75 0.078125 -12.257812 0.140625 -15.75 C 0.140625 -17.445312 0.21875 -20.128906 0.375 -23.796875 C 0.539062 -27.472656 0.804688 -31.359375 1.171875 -35.453125 C 1.535156 -39.546875 2.023438 -43.078125 2.640625 -46.046875 C 2.878906 -47.222656 3.273438 -48.332031 3.828125 -49.375 C 4.390625 -50.425781 5.253906 -51.097656 6.421875 -51.390625 C 6.929688 -51.492188 7.425781 -51.398438 7.90625 -51.109375 C 8.382812 -50.816406 8.816406 -50.226562 9.203125 -49.34375 C 9.578125 -48.414062 9.785156 -47.453125 9.828125 -46.453125 C 9.910156 -44.222656 9.644531 -41.40625 9.03125 -38 C 8.414062 -34.59375 7.648438 -31.050781 6.734375 -27.375 C 5.816406 -23.707031 4.953125 -20.363281 4.140625 -17.34375 C 3.671875 -15.632812 3.269531 -14.164062 2.9375 -12.9375 C 3.300781 -13.570312 3.78125 -14.289062 4.375 -15.09375 C 4.976562 -15.90625 5.5625 -16.550781 6.125 -17.03125 C 7.445312 -18.09375 8.957031 -18.460938 10.65625 -18.140625 C 12.53125 -17.722656 13.101562 -16.648438 12.375 -14.921875 C 11.582031 -13.390625 10.601562 -12.21875 9.4375 -11.40625 C 8.28125 -10.601562 7.164062 -9.984375 6.09375 -9.546875 C 7.21875 -7.960938 8.503906 -6.695312 9.953125 -5.75 C 10.972656 -5.15625 12.097656 -5.054688 13.328125 -5.453125 C 14.566406 -5.859375 15.757812 -6.476562 16.90625 -7.3125 C 18.0625 -8.144531 19.003906 -8.914062 19.734375 -9.625 Z M 5.203125 -44.71875 C 4.691406 -41.414062 4.238281 -37.242188 3.84375 -32.203125 C 3.457031 -27.160156 3.191406 -23.015625 3.046875 -19.765625 C 3.535156 -21.078125 4.101562 -23.289062 4.75 -26.40625 C 5.394531 -29.519531 6 -32.742188 6.5625 -36.078125 C 7.125 -39.410156 7.519531 -42.09375 7.75 -44.125 C 7.988281 -46.351562 7.953125 -47.800781 7.640625 -48.46875 C 7.335938 -49.144531 6.941406 -49.148438 6.453125 -48.484375 C 5.960938 -47.828125 5.546875 -46.570312 5.203125 -44.71875 Z M 3.78125 -11.09375 C 3.90625 -11.019531 4.234375 -11.070312 4.765625 -11.25 C 5.304688 -11.4375 5.90625 -11.691406 6.5625 -12.015625 C 7.226562 -12.335938 7.769531 -12.71875 8.1875 -13.15625 C 9.1875 -14.269531 9.632812 -15.03125 9.53125 -15.4375 C 9.4375 -15.851562 9.078125 -16.003906 8.453125 -15.890625 C 7.835938 -15.773438 7.234375 -15.460938 6.640625 -14.953125 C 5.972656 -14.316406 5.335938 -13.613281 4.734375 -12.84375 C 4.128906 -12.070312 3.8125 -11.488281 3.78125 -11.09375 Z M 3.78125 -11.09375 "/></g></g></g><g fill="#f2f0fa" fill-opacity="1"><g transform="translate(300.254895, 182.438659)"><g><path d="M 19.296875 -9.671875 C 19.585938 -9.847656 19.875 -9.976562 20.15625 -10.0625 C 20.4375 -10.15625 20.617188 -10.148438 20.703125 -10.046875 C 20.796875 -9.941406 20.679688 -9.703125 20.359375 -9.328125 C 19.359375 -8.179688 18.160156 -7.128906 16.765625 -6.171875 C 15.367188 -5.222656 13.9375 -4.421875 12.46875 -3.765625 C 11.320312 -3.242188 10.109375 -2.828125 8.828125 -2.515625 C 7.554688 -2.210938 6.296875 -2.144531 5.046875 -2.3125 C 3.804688 -2.488281 2.671875 -3.046875 1.640625 -3.984375 C 0.078125 -5.421875 -0.566406 -7.179688 -0.296875 -9.265625 C -0.0664062 -10.921875 0.570312 -12.328125 1.625 -13.484375 C 2.6875 -14.640625 4.023438 -15.421875 5.640625 -15.828125 C 6.992188 -16.128906 8.34375 -16.164062 9.6875 -15.9375 C 10.300781 -15.84375 10.863281 -15.632812 11.375 -15.3125 C 11.84375 -14.957031 12.097656 -14.535156 12.140625 -14.046875 C 12.191406 -13.566406 12.007812 -13.109375 11.59375 -12.671875 C 10.738281 -11.910156 9.75 -11.457031 8.625 -11.3125 C 7.375 -11.09375 6.113281 -10.957031 4.84375 -10.90625 C 4.226562 -10.90625 3.796875 -10.78125 3.546875 -10.53125 C 3.304688 -10.28125 3.164062 -9.847656 3.125 -9.234375 C 2.925781 -7.566406 3.457031 -6.203125 4.71875 -5.140625 C 5.507812 -4.515625 6.46875 -4.25 7.59375 -4.34375 C 8.726562 -4.4375 9.925781 -4.738281 11.1875 -5.25 C 12.457031 -5.769531 13.695312 -6.375 14.90625 -7.0625 C 16.125 -7.75 17.222656 -8.398438 18.203125 -9.015625 C 18.609375 -9.273438 18.972656 -9.492188 19.296875 -9.671875 Z M 5.390625 -13.234375 C 5.390625 -13.203125 5.367188 -13.1875 5.328125 -13.1875 C 5.273438 -13.132812 5.203125 -13.070312 5.109375 -13 C 5.023438 -12.925781 4.945312 -12.851562 4.875 -12.78125 C 4.800781 -12.707031 4.765625 -12.65625 4.765625 -12.625 C 4.796875 -12.539062 5.035156 -12.519531 5.484375 -12.5625 C 5.941406 -12.601562 6.441406 -12.679688 6.984375 -12.796875 C 7.535156 -12.910156 7.992188 -13.0625 8.359375 -13.25 C 8.722656 -13.445312 8.832031 -13.679688 8.6875 -13.953125 C 8.625 -14.035156 8.539062 -14.101562 8.4375 -14.15625 C 8.332031 -14.21875 8.222656 -14.265625 8.109375 -14.296875 C 7.578125 -14.296875 7.085938 -14.191406 6.640625 -13.984375 C 6.203125 -13.773438 5.785156 -13.523438 5.390625 -13.234375 Z M 5.390625 -13.234375 "/></g></g></g><g fill="#a67de8" fill-opacity="1"><g transform="translate(52.355759, 234.224749)"><g><path d="M 11.3125 -15.359375 L 11.3125 -13.375 L 4.265625 -13.375 L 4.265625 -8.5 L 10.453125 -8.5 L 10.453125 -6.515625 L 4.265625 -6.515625 L 4.265625 0 L 2.203125 0 L 2.203125 -15.359375 Z M 11.3125 -15.359375 "/></g></g></g><g fill="#a67de8" fill-opacity="1"><g transform="translate(70.441656, 234.224749)"><g><path d="M 10.25 -4.03125 L 4.359375 -4.03125 L 2.71875 0 L 0.671875 0 L 7.390625 -15.984375 L 7.515625 -15.984375 L 14.234375 0 L 11.84375 0 Z M 9.5625 -5.8125 L 7.375 -11.421875 L 5.09375 -5.8125 Z M 9.5625 -5.8125 "/></g></g></g><g fill="#a67de8" fill-opacity="1"><g transform="translate(90.904503, 234.224749)"><g><path d="M 15.59375 -15.359375 L 15.59375 0.515625 L 15.515625 0.515625 L 4.25 -10.9375 L 4.296875 0 L 2.203125 0 L 2.203125 -15.8125 L 2.3125 -15.8125 L 13.5625 -4.25 L 13.53125 -15.359375 Z M 15.59375 -15.359375 "/></g></g></g><g fill="#a67de8" fill-opacity="1"><g transform="translate(114.274859, 234.224749)"><g><path d="M 11.28125 -15.359375 L 11.28125 -13.375 L 7.15625 -13.375 L 7.15625 0 L 5.09375 0 L 5.09375 -13.375 L 1.078125 -13.375 L 1.078125 -15.359375 Z M 11.28125 -15.359375 "/></g></g></g><g fill="#a67de8" fill-opacity="1"><g transform="translate(132.212209, 234.224749)"><g><path d="M 10.25 -4.03125 L 4.359375 -4.03125 L 2.71875 0 L 0.671875 0 L 7.390625 -15.984375 L 7.515625 -15.984375 L 14.234375 0 L 11.84375 0 Z M 9.5625 -5.8125 L 7.375 -11.421875 L 5.09375 -5.8125 Z M 9.5625 -5.8125 "/></g></g></g><g fill="#a67de8" fill-opacity="1"><g transform="translate(152.675049, 234.224749)"><g><path d="M 10.15625 -12.609375 C 9.601562 -12.910156 9.015625 -13.148438 8.390625 -13.328125 C 7.765625 -13.515625 7.175781 -13.609375 6.625 -13.609375 C 5.789062 -13.609375 5.128906 -13.421875 4.640625 -13.046875 C 4.148438 -12.671875 3.90625 -12.160156 3.90625 -11.515625 C 3.90625 -10.867188 4.191406 -10.34375 4.765625 -9.9375 C 5.335938 -9.539062 6.15625 -9.144531 7.21875 -8.75 C 8.007812 -8.46875 8.675781 -8.160156 9.21875 -7.828125 C 9.769531 -7.492188 10.222656 -7.03125 10.578125 -6.4375 C 10.941406 -5.851562 11.125 -5.109375 11.125 -4.203125 C 11.125 -3.378906 10.914062 -2.632812 10.5 -1.96875 C 10.09375 -1.3125 9.507812 -0.789062 8.75 -0.40625 C 8 -0.0195312 7.113281 0.171875 6.09375 0.171875 C 5.144531 0.171875 4.226562 0.0195312 3.34375 -0.28125 C 2.46875 -0.59375 1.703125 -0.976562 1.046875 -1.4375 L 1.953125 -3.078125 C 2.472656 -2.679688 3.101562 -2.34375 3.84375 -2.0625 C 4.582031 -1.789062 5.269531 -1.65625 5.90625 -1.65625 C 6.726562 -1.65625 7.445312 -1.867188 8.0625 -2.296875 C 8.675781 -2.722656 8.984375 -3.351562 8.984375 -4.1875 C 8.984375 -4.894531 8.722656 -5.457031 8.203125 -5.875 C 7.691406 -6.289062 6.96875 -6.679688 6.03125 -7.046875 C 5.164062 -7.367188 4.445312 -7.6875 3.875 -8 C 3.300781 -8.3125 2.804688 -8.738281 2.390625 -9.28125 C 1.984375 -9.832031 1.78125 -10.519531 1.78125 -11.34375 C 1.78125 -12.539062 2.203125 -13.507812 3.046875 -14.25 C 3.890625 -15 4.984375 -15.394531 6.328125 -15.4375 C 7.984375 -15.4375 9.519531 -15.023438 10.9375 -14.203125 Z M 10.15625 -12.609375 "/></g></g></g><g fill="#a67de8" fill-opacity="1"><g transform="translate(170.612396, 234.224749)"><g><path d="M 14.09375 -15.359375 L 8.34375 -5.125 L 8.34375 0 L 6.28125 0 L 6.28125 -5.125 L 0.59375 -15.359375 L 3.140625 -15.359375 L 7.375 -7.453125 L 11.578125 -15.359375 Z M 14.09375 -15.359375 "/></g></g></g><g fill="#a67de8" fill-opacity="1"><g transform="translate(190.884234, 234.224749)"><g/></g></g><g fill="#a67de8" fill-opacity="1"><g transform="translate(203.17634, 234.224749)"><g><path d="M 10.25 -4.03125 L 4.359375 -4.03125 L 2.71875 0 L 0.671875 0 L 7.390625 -15.984375 L 7.515625 -15.984375 L 14.234375 0 L 11.84375 0 Z M 9.5625 -5.8125 L 7.375 -11.421875 L 5.09375 -5.8125 Z M 9.5625 -5.8125 "/></g></g></g><g fill="#a67de8" fill-opacity="1"><g transform="translate(223.63918, 234.224749)"><g><path d="M 4.078125 -5.4375 C 4.078125 -4.757812 4.238281 -4.144531 4.5625 -3.59375 C 4.882812 -3.050781 5.328125 -2.617188 5.890625 -2.296875 C 6.453125 -1.984375 7.070312 -1.828125 7.75 -1.828125 C 8.457031 -1.828125 9.097656 -1.984375 9.671875 -2.296875 C 10.242188 -2.609375 10.691406 -3.039062 11.015625 -3.59375 C 11.347656 -4.144531 11.515625 -4.757812 11.515625 -5.4375 L 11.515625 -15.359375 L 13.53125 -15.359375 L 13.53125 -5.375 C 13.53125 -4.28125 13.273438 -3.3125 12.765625 -2.46875 C 12.253906 -1.625 11.554688 -0.972656 10.671875 -0.515625 C 9.796875 -0.0546875 8.820312 0.171875 7.75 0.171875 C 6.6875 0.171875 5.71875 -0.0546875 4.84375 -0.515625 C 3.96875 -0.972656 3.273438 -1.625 2.765625 -2.46875 C 2.265625 -3.3125 2.015625 -4.28125 2.015625 -5.375 L 2.015625 -15.359375 L 4.078125 -15.359375 Z M 4.078125 -5.4375 "/></g></g></g><g fill="#a67de8" fill-opacity="1"><g transform="translate(244.759925, 234.224749)"><g><path d="M 11.28125 -15.359375 L 11.28125 -13.375 L 7.15625 -13.375 L 7.15625 0 L 5.09375 0 L 5.09375 -13.375 L 1.078125 -13.375 L 1.078125 -15.359375 Z M 11.28125 -15.359375 "/></g></g></g><g fill="#a67de8" fill-opacity="1"><g transform="translate(262.697272, 234.224749)"><g><path d="M 14.375 0 L 12.3125 0 L 12.3125 -6.734375 L 4.265625 -6.734375 L 4.265625 0 L 2.203125 0 L 2.203125 -15.359375 L 4.265625 -15.359375 L 4.265625 -8.703125 L 12.3125 -8.703125 L 12.3125 -15.359375 L 14.375 -15.359375 Z M 14.375 0 "/></g></g></g><g fill="#a67de8" fill-opacity="1"><g transform="translate(284.857954, 234.224749)"><g><path d="M 1.25 -7.671875 C 1.25 -9.066406 1.601562 -10.363281 2.3125 -11.5625 C 3.019531 -12.769531 3.972656 -13.726562 5.171875 -14.4375 C 6.367188 -15.15625 7.675781 -15.515625 9.09375 -15.515625 C 10.488281 -15.515625 11.785156 -15.15625 12.984375 -14.4375 C 14.191406 -13.726562 15.148438 -12.769531 15.859375 -11.5625 C 16.578125 -10.363281 16.9375 -9.066406 16.9375 -7.671875 C 16.9375 -6.253906 16.582031 -4.941406 15.875 -3.734375 C 15.175781 -2.535156 14.21875 -1.582031 13 -0.875 C 11.789062 -0.175781 10.488281 0.171875 9.09375 0.171875 C 7.675781 0.171875 6.363281 -0.171875 5.15625 -0.859375 C 3.957031 -1.554688 3.003906 -2.503906 2.296875 -3.703125 C 1.597656 -4.898438 1.25 -6.222656 1.25 -7.671875 Z M 3.375 -7.640625 C 3.375 -6.597656 3.628906 -5.628906 4.140625 -4.734375 C 4.648438 -3.835938 5.347656 -3.128906 6.234375 -2.609375 C 7.117188 -2.085938 8.082031 -1.828125 9.125 -1.828125 C 10.175781 -1.828125 11.132812 -2.082031 12 -2.59375 C 12.875 -3.113281 13.5625 -3.820312 14.0625 -4.71875 C 14.570312 -5.625 14.828125 -6.609375 14.828125 -7.671875 C 14.828125 -8.734375 14.570312 -9.710938 14.0625 -10.609375 C 13.550781 -11.515625 12.851562 -12.226562 11.96875 -12.75 C 11.09375 -13.28125 10.132812 -13.546875 9.09375 -13.546875 C 8.039062 -13.546875 7.078125 -13.28125 6.203125 -12.75 C 5.328125 -12.21875 4.632812 -11.5 4.125 -10.59375 C 3.625 -9.6875 3.375 -8.703125 3.375 -7.640625 Z M 3.375 -7.640625 "/></g></g></g><g fill="#a67de8" fill-opacity="1"><g transform="translate(308.631517, 234.224749)"><g><path d="M 10.65625 0 L 7.046875 -5.671875 C 6.929688 -5.648438 6.765625 -5.640625 6.546875 -5.640625 L 4.265625 -5.640625 L 4.265625 0 L 2.203125 0 L 2.203125 -15.359375 L 6.3125 -15.359375 C 7.351562 -15.359375 8.285156 -15.171875 9.109375 -14.796875 C 9.929688 -14.429688 10.578125 -13.890625 11.046875 -13.171875 C 11.515625 -12.460938 11.75 -11.601562 11.75 -10.59375 C 11.75 -9.644531 11.535156 -8.773438 11.109375 -7.984375 C 10.691406 -7.191406 10.050781 -6.585938 9.1875 -6.171875 L 13.0625 0 Z M 6.5 -7.640625 C 7.601562 -7.640625 8.398438 -7.929688 8.890625 -8.515625 C 9.378906 -9.097656 9.625 -9.765625 9.625 -10.515625 C 9.625 -10.960938 9.519531 -11.40625 9.3125 -11.84375 C 9.101562 -12.28125 8.773438 -12.644531 8.328125 -12.9375 C 7.890625 -13.226562 7.328125 -13.375 6.640625 -13.375 L 4.265625 -13.375 L 4.265625 -7.640625 Z M 6.5 -7.640625 "/></g></g></g></svg>